<svg id="csvg" viewBox="0 0 225 225" width="220" height="225" xmlns="http://www.w3.org/2000/svg" style="max-width: 225px; display: block; margin-inline: auto;">

    <defs>
        <mask id="txt-mask" maskUnits="userSpaceOnUse">
            <rect x="0" y="0" width="220" height="220" fill="white"></rect>
            <!-- N -->
            <rect x="96" y="7" width="28" height="22" fill="black" rx="3"></rect>
            <!-- S -->
            <rect x="96" y="191" width="28" height="22" fill="black" rx="3"></rect>
            <!-- O -->
            <rect x="1" y="99" width="28" height="22" fill="black" rx="3"></rect>
            <!-- E -->
            <rect x="191" y="99" width="28" height="22" fill="black" rx="3"></rect>
            <!-- vitesse -->
            <rect x="84" y="82" width="52" height="34" fill="black" rx="3"></rect>
            <!-- km/h -->
            <rect x="88" y="113" width="44" height="20" fill="black" rx="3"></rect>
        </mask>
        <mask id="imagine-text-gaps-vpx2ej" maskUnits="userSpaceOnUse">
            <rect x="0" y="0" width="225" height="225" fill="white"></rect>
            <rect x="102.0241470336914" y="10.181818008422852" width="15.951704502105713" height="16.272727012634277" fill="black" rx="2"></rect>
            <rect x="102.33096313476562" y="195.18182373046875" width="15.363636493682861" height="16.272727012634277" fill="black" rx="2"></rect>
            <rect x="6.717329978942871" y="103.18181610107422" width="16.565340995788574" height="16.272727012634277" fill="black" rx="2"></rect>
            <rect x="198.33096313476562" y="103.18181610107422" width="15.363636493682861" height="16.272727012634277" fill="black" rx="2"></rect>
            <rect x="93.765625" y="85.36363220214844" width="32.50403022766113" height="28.545454025268555" fill="black" rx="2"></rect>
            <rect x="95.16548156738281" y="110" width="29.832717895507812" height="15.454545021057129" fill="black" rx="2"></rect>
        </mask>
    </defs>

    <g mask="url(#txt-mask)">
        <g id="tks"><line x1="110.00" y1="7.00" x2="110.00" y2="19.00" stroke="currentColor" stroke-width="1.5" stroke-linecap="round" opacity="0.5"></line><line x1="118.98" y1="7.39" x2="118.54" y2="12.37" stroke="currentColor" stroke-width="0.8" stroke-linecap="round" opacity="0.15"></line><line x1="127.89" y1="8.56" x2="127.02" y2="13.49" stroke="currentColor" stroke-width="0.8" stroke-linecap="round" opacity="0.15"></line><line x1="136.66" y1="10.51" x2="134.59" y2="18.24" stroke="currentColor" stroke-width="0.8" stroke-linecap="round" opacity="0.3"></line><line x1="145.23" y1="13.21" x2="143.52" y2="17.91" stroke="currentColor" stroke-width="0.8" stroke-linecap="round" opacity="0.15"></line><line x1="153.53" y1="16.65" x2="151.42" y2="21.18" stroke="currentColor" stroke-width="0.8" stroke-linecap="round" opacity="0.15"></line><line x1="161.50" y1="20.80" x2="157.50" y2="27.73" stroke="currentColor" stroke-width="0.8" stroke-linecap="round" opacity="0.3"></line><line x1="169.08" y1="25.63" x2="166.21" y2="29.72" stroke="currentColor" stroke-width="0.8" stroke-linecap="round" opacity="0.15"></line><line x1="176.21" y1="31.10" x2="172.99" y2="34.93" stroke="currentColor" stroke-width="0.8" stroke-linecap="round" opacity="0.15"></line><line x1="182.83" y1="37.17" x2="174.35" y2="45.65" stroke="currentColor" stroke-width="1.5" stroke-linecap="round" opacity="0.5"></line><line x1="188.90" y1="43.79" x2="185.07" y2="47.01" stroke="currentColor" stroke-width="0.8" stroke-linecap="round" opacity="0.15"></line><line x1="194.37" y1="50.92" x2="190.28" y2="53.79" stroke="currentColor" stroke-width="0.8" stroke-linecap="round" opacity="0.15"></line><line x1="199.20" y1="58.50" x2="192.27" y2="62.50" stroke="currentColor" stroke-width="0.8" stroke-linecap="round" opacity="0.3"></line><line x1="203.35" y1="66.47" x2="198.82" y2="68.58" stroke="currentColor" stroke-width="0.8" stroke-linecap="round" opacity="0.15"></line><line x1="206.79" y1="74.77" x2="202.09" y2="76.48" stroke="currentColor" stroke-width="0.8" stroke-linecap="round" opacity="0.15"></line><line x1="209.49" y1="83.34" x2="201.76" y2="85.41" stroke="currentColor" stroke-width="0.8" stroke-linecap="round" opacity="0.3"></line><line x1="211.44" y1="92.11" x2="206.51" y2="92.98" stroke="currentColor" stroke-width="0.8" stroke-linecap="round" opacity="0.15"></line><line x1="212.61" y1="101.02" x2="207.63" y2="101.46" stroke="currentColor" stroke-width="0.8" stroke-linecap="round" opacity="0.15"></line><line x1="213.00" y1="110.00" x2="201.00" y2="110.00" stroke="currentColor" stroke-width="1.5" stroke-linecap="round" opacity="0.5"></line><line x1="212.61" y1="118.98" x2="207.63" y2="118.54" stroke="currentColor" stroke-width="0.8" stroke-linecap="round" opacity="0.15"></line><line x1="211.44" y1="127.89" x2="206.51" y2="127.02" stroke="currentColor" stroke-width="0.8" stroke-linecap="round" opacity="0.15"></line><line x1="209.49" y1="136.66" x2="201.76" y2="134.59" stroke="currentColor" stroke-width="0.8" stroke-linecap="round" opacity="0.3"></line><line x1="206.79" y1="145.23" x2="202.09" y2="143.52" stroke="currentColor" stroke-width="0.8" stroke-linecap="round" opacity="0.15"></line><line x1="203.35" y1="153.53" x2="198.82" y2="151.42" stroke="currentColor" stroke-width="0.8" stroke-linecap="round" opacity="0.15"></line><line x1="199.20" y1="161.50" x2="192.27" y2="157.50" stroke="currentColor" stroke-width="0.8" stroke-linecap="round" opacity="0.3"></line><line x1="194.37" y1="169.08" x2="190.28" y2="166.21" stroke="currentColor" stroke-width="0.8" stroke-linecap="round" opacity="0.15"></line><line x1="188.90" y1="176.21" x2="185.07" y2="172.99" stroke="currentColor" stroke-width="0.8" stroke-linecap="round" opacity="0.15"></line><line x1="182.83" y1="182.83" x2="174.35" y2="174.35" stroke="currentColor" stroke-width="1.5" stroke-linecap="round" opacity="0.5"></line><line x1="176.21" y1="188.90" x2="172.99" y2="185.07" stroke="currentColor" stroke-width="0.8" stroke-linecap="round" opacity="0.15"></line><line x1="169.08" y1="194.37" x2="166.21" y2="190.28" stroke="currentColor" stroke-width="0.8" stroke-linecap="round" opacity="0.15"></line><line x1="161.50" y1="199.20" x2="157.50" y2="192.27" stroke="currentColor" stroke-width="0.8" stroke-linecap="round" opacity="0.3"></line><line x1="153.53" y1="203.35" x2="151.42" y2="198.82" stroke="currentColor" stroke-width="0.8" stroke-linecap="round" opacity="0.15"></line><line x1="145.23" y1="206.79" x2="143.52" y2="202.09" stroke="currentColor" stroke-width="0.8" stroke-linecap="round" opacity="0.15"></line><line x1="136.66" y1="209.49" x2="134.59" y2="201.76" stroke="currentColor" stroke-width="0.8" stroke-linecap="round" opacity="0.3"></line><line x1="127.89" y1="211.44" x2="127.02" y2="206.51" stroke="currentColor" stroke-width="0.8" stroke-linecap="round" opacity="0.15"></line><line x1="118.98" y1="212.61" x2="118.54" y2="207.63" stroke="currentColor" stroke-width="0.8" stroke-linecap="round" opacity="0.15"></line><line x1="110.00" y1="213.00" x2="110.00" y2="201.00" stroke="currentColor" stroke-width="1.5" stroke-linecap="round" opacity="0.5"></line><line x1="101.02" y1="212.61" x2="101.46" y2="207.63" stroke="currentColor" stroke-width="0.8" stroke-linecap="round" opacity="0.15"></line><line x1="92.11" y1="211.44" x2="92.98" y2="206.51" stroke="currentColor" stroke-width="0.8" stroke-linecap="round" opacity="0.15"></line><line x1="83.34" y1="209.49" x2="85.41" y2="201.76" stroke="currentColor" stroke-width="0.8" stroke-linecap="round" opacity="0.3"></line><line x1="74.77" y1="206.79" x2="76.48" y2="202.09" stroke="currentColor" stroke-width="0.8" stroke-linecap="round" opacity="0.15"></line><line x1="66.47" y1="203.35" x2="68.58" y2="198.82" stroke="currentColor" stroke-width="0.8" stroke-linecap="round" opacity="0.15"></line><line x1="58.50" y1="199.20" x2="62.50" y2="192.27" stroke="currentColor" stroke-width="0.8" stroke-linecap="round" opacity="0.3"></line><line x1="50.92" y1="194.37" x2="53.79" y2="190.28" stroke="currentColor" stroke-width="0.8" stroke-linecap="round" opacity="0.15"></line><line x1="43.79" y1="188.90" x2="47.01" y2="185.07" stroke="currentColor" stroke-width="0.8" stroke-linecap="round" opacity="0.15"></line><line x1="37.17" y1="182.83" x2="45.65" y2="174.35" stroke="currentColor" stroke-width="1.5" stroke-linecap="round" opacity="0.5"></line><line x1="31.10" y1="176.21" x2="34.93" y2="172.99" stroke="currentColor" stroke-width="0.8" stroke-linecap="round" opacity="0.15"></line><line x1="25.63" y1="169.08" x2="29.72" y2="166.21" stroke="currentColor" stroke-width="0.8" stroke-linecap="round" opacity="0.15"></line><line x1="20.80" y1="161.50" x2="27.73" y2="157.50" stroke="currentColor" stroke-width="0.8" stroke-linecap="round" opacity="0.3"></line><line x1="16.65" y1="153.53" x2="21.18" y2="151.42" stroke="currentColor" stroke-width="0.8" stroke-linecap="round" opacity="0.15"></line><line x1="13.21" y1="145.23" x2="17.91" y2="143.52" stroke="currentColor" stroke-width="0.8" stroke-linecap="round" opacity="0.15"></line><line x1="10.51" y1="136.66" x2="18.24" y2="134.59" stroke="currentColor" stroke-width="0.8" stroke-linecap="round" opacity="0.3"></line><line x1="8.56" y1="127.89" x2="13.49" y2="127.02" stroke="currentColor" stroke-width="0.8" stroke-linecap="round" opacity="0.15"></line><line x1="7.39" y1="118.98" x2="12.37" y2="118.54" stroke="currentColor" stroke-width="0.8" stroke-linecap="round" opacity="0.15"></line><line x1="7.00" y1="110.00" x2="19.00" y2="110.00" stroke="currentColor" stroke-width="1.5" stroke-linecap="round" opacity="0.5"></line><line x1="7.39" y1="101.02" x2="12.37" y2="101.46" stroke="currentColor" stroke-width="0.8" stroke-linecap="round" opacity="0.15"></line><line x1="8.56" y1="92.11" x2="13.49" y2="92.98" stroke="currentColor" stroke-width="0.8" stroke-linecap="round" opacity="0.15"></line><line x1="10.51" y1="83.34" x2="18.24" y2="85.41" stroke="currentColor" stroke-width="0.8" stroke-linecap="round" opacity="0.3"></line><line x1="13.21" y1="74.77" x2="17.91" y2="76.48" stroke="currentColor" stroke-width="0.8" stroke-linecap="round" opacity="0.15"></line><line x1="16.65" y1="66.47" x2="21.18" y2="68.58" stroke="currentColor" stroke-width="0.8" stroke-linecap="round" opacity="0.15"></line><line x1="20.80" y1="58.50" x2="27.73" y2="62.50" stroke="currentColor" stroke-width="0.8" stroke-linecap="round" opacity="0.3"></line><line x1="25.63" y1="50.92" x2="29.72" y2="53.79" stroke="currentColor" stroke-width="0.8" stroke-linecap="round" opacity="0.15"></line><line x1="31.10" y1="43.79" x2="34.93" y2="47.01" stroke="currentColor" stroke-width="0.8" stroke-linecap="round" opacity="0.15"></line><line x1="37.17" y1="37.17" x2="45.65" y2="45.65" stroke="currentColor" stroke-width="1.5" stroke-linecap="round" opacity="0.5"></line><line x1="43.79" y1="31.10" x2="47.01" y2="34.93" stroke="currentColor" stroke-width="0.8" stroke-linecap="round" opacity="0.15"></line><line x1="50.92" y1="25.63" x2="53.79" y2="29.72" stroke="currentColor" stroke-width="0.8" stroke-linecap="round" opacity="0.15"></line><line x1="58.50" y1="20.80" x2="62.50" y2="27.73" stroke="currentColor" stroke-width="0.8" stroke-linecap="round" opacity="0.3"></line><line x1="66.47" y1="16.65" x2="68.58" y2="21.18" stroke="currentColor" stroke-width="0.8" stroke-linecap="round" opacity="0.15"></line><line x1="74.77" y1="13.21" x2="76.48" y2="17.91" stroke="currentColor" stroke-width="0.8" stroke-linecap="round" opacity="0.15"></line><line x1="83.34" y1="10.51" x2="85.41" y2="18.24" stroke="currentColor" stroke-width="0.8" stroke-linecap="round" opacity="0.3"></line><line x1="92.11" y1="8.56" x2="92.98" y2="13.49" stroke="currentColor" stroke-width="0.8" stroke-linecap="round" opacity="0.15"></line><line x1="101.02" y1="7.39" x2="101.46" y2="12.37" stroke="currentColor" stroke-width="0.8" stroke-linecap="round" opacity="0.15"></line></g>
        <g id="needle" transform="rotate(0,110,110)">
            <line x1="110" y1="40" x2="110" y2="180" stroke="currentColor" stroke-width="1.5" stroke-linecap="round" opacity="0.8" mask="url(#imagine-text-gaps-vpx2ej)"></line>
            <polygon points="110,27 105,46 115,46" fill="currentColor" opacity="0.9"></polygon>
            <circle cx="110" cy="186" r="5" fill="currentColor" opacity="0.9"></circle>
        </g>
        <circle cx="110" cy="110" r="3.5" fill="none" stroke="currentColor" stroke-width="1" opacity="0.35"></circle>
        <circle cx="110" cy="110" r="1.5" fill="currentColor" opacity="0.6"></circle>
    </g>

    <text x="110" y="15" text-anchor="middle" font-size="14" fill="currentColor" font-family="Helvetica,Arial,sans-serif" font-weight="500" opacity="0.7">N</text>
    <text x="110" y="214" text-anchor="middle" font-size="14" fill="currentColor" font-family="Helvetica,Arial,sans-serif" opacity="0.7">S</text>
    <text x="10" y="115" text-anchor="middle" font-size="14" fill="currentColor" font-family="Helvetica,Arial,sans-serif" opacity="0.7">O</text>
    <text x="212" y="115" text-anchor="middle" font-size="14" fill="currentColor" font-family="Helvetica,Arial,sans-serif" opacity="0.7">E</text>
    <text x="110" y="107" text-anchor="middle" font-size="22" fill="currentColor" font-family="Helvetica,Arial,sans-serif" font-weight="600" id="spd">13</text>
    <text x="110" y="121" text-anchor="middle" font-size="10" fill="currentColor" font-family="Helvetica,Arial,sans-serif" opacity="0.5">km/h</text>

</svg>